<mxfile host="Electron" modified="2023-06-03T13:04:04.071Z" agent="Mozilla/5.0 (Macintosh; Intel Mac OS X 10_15_7) AppleWebKit/537.36 (KHTML, like Gecko) draw.io/21.2.8 Chrome/112.0.5615.165 Electron/24.2.0 Safari/537.36" etag="eyHya5blMXvFZWtxALu1" version="21.2.8" type="device">
  <diagram name="Page-1" id="ZWXxL3VjTxnWNbNJUjyw">
    <mxGraphModel dx="1363" dy="2045" grid="1" gridSize="10" guides="1" tooltips="1" connect="1" arrows="1" fold="1" page="1" pageScale="1" pageWidth="827" pageHeight="1169" math="0" shadow="0">
      <root>
        <mxCell id="0" />
        <mxCell id="1" parent="0" />
        <mxCell id="SQYRhNaokP3GQ9LWGMA7-50" value="" style="verticalAlign=top;align=left;spacingTop=8;spacingLeft=2;spacingRight=12;shape=cube;size=20;direction=south;fontStyle=4;html=1;whiteSpace=wrap;" parent="1" vertex="1">
          <mxGeometry x="270" y="-10" width="880" height="415" as="geometry" />
        </mxCell>
        <mxCell id="SQYRhNaokP3GQ9LWGMA7-81" style="edgeStyle=orthogonalEdgeStyle;rounded=0;orthogonalLoop=1;jettySize=auto;html=1;entryX=0.889;entryY=0.997;entryDx=0;entryDy=0;entryPerimeter=0;endArrow=none;endFill=0;" parent="1" source="SQYRhNaokP3GQ9LWGMA7-1" target="SQYRhNaokP3GQ9LWGMA7-21" edge="1">
          <mxGeometry relative="1" as="geometry" />
        </mxCell>
        <mxCell id="SQYRhNaokP3GQ9LWGMA7-82" value="&lt;font style=&quot;font-size: 15px;&quot;&gt;HTTP&lt;/font&gt;" style="edgeLabel;html=1;align=center;verticalAlign=middle;resizable=0;points=[];" parent="SQYRhNaokP3GQ9LWGMA7-81" vertex="1" connectable="0">
          <mxGeometry x="0.2175" y="2" relative="1" as="geometry">
            <mxPoint as="offset" />
          </mxGeometry>
        </mxCell>
        <mxCell id="SQYRhNaokP3GQ9LWGMA7-1" value="" style="html=1;overflow=block;blockSpacing=1;whiteSpace=wrap;shape=cube;size=20;flipH=1;verticalAlign=top;spacingTop=22;spacingLeft=5;fontSize=13;align=left;spacing=0;strokeColor=#3a414a;strokeOpacity=100;rounded=1;absoluteArcSize=1;arcSize=9;strokeWidth=0.8;lucidId=wsU33zWdM.z_;container=1;collapsible=0;" parent="1" vertex="1">
          <mxGeometry x="120" y="495" width="480" height="480" as="geometry" />
        </mxCell>
        <mxCell id="SQYRhNaokP3GQ9LWGMA7-2" value="" style="html=1;overflow=block;blockSpacing=1;whiteSpace=wrap;shape=cube;size=20;flipH=1;verticalAlign=top;spacingTop=22;spacingLeft=5;fontSize=13;align=left;spacing=0;strokeColor=#3a414a;strokeOpacity=100;rounded=1;absoluteArcSize=1;arcSize=9;strokeWidth=0.8;lucidId=CsU3Cb9aL5qJ;" parent="SQYRhNaokP3GQ9LWGMA7-1" vertex="1">
          <mxGeometry y="90" width="390" height="390" as="geometry" />
        </mxCell>
        <mxCell id="SQYRhNaokP3GQ9LWGMA7-3" value="" style="html=1;overflow=block;blockSpacing=1;whiteSpace=wrap;shape=cube;size=20;flipH=1;verticalAlign=top;spacingTop=22;spacingLeft=5;fontSize=13;align=left;spacing=0;strokeColor=#3a414a;strokeOpacity=100;rounded=1;absoluteArcSize=1;arcSize=9;strokeWidth=0.8;lucidId=ltU3Fc-zPhFv;" parent="SQYRhNaokP3GQ9LWGMA7-1" vertex="1">
          <mxGeometry y="183" width="318" height="297" as="geometry" />
        </mxCell>
        <mxCell id="SQYRhNaokP3GQ9LWGMA7-4" value="&lt;div style=&quot;display: flex; justify-content: center; text-align: center; align-items: baseline; font-size: 15px; line-height: 1.25; margin-top: -2px;&quot;&gt;&lt;span style=&quot;font-size: 15px;&quot;&gt;&lt;span style=&quot;font-size: 15px; color: rgb(58, 65, 74); font-family: &amp;quot;Liberation Serif&amp;quot;;&quot;&gt;&lt;span style=&quot;font-size: 15px; color: rgb(58, 65, 74); font-family: &amp;quot;Liberation Serif&amp;quot;;&quot;&gt;&amp;lt;&amp;lt;Device&amp;gt;&amp;gt;&#xa;&lt;/span&gt;&lt;span style=&quot;font-size: 15px; color: rgb(58, 65, 74); font-weight: bold; font-family: &amp;quot;Liberation Serif&amp;quot;;&quot;&gt;Computer&lt;/span&gt;&lt;/span&gt;&lt;/span&gt;&lt;/div&gt;" style="html=1;overflow=block;blockSpacing=1;whiteSpace=wrap;fontSize=15;fontFamily=Liberation Serif;spacing=0;fillColor=#ffffff;strokeWidth=1.5;strokeColor=none;lucidId=huU3~CUed-JX;" parent="SQYRhNaokP3GQ9LWGMA7-1" vertex="1">
          <mxGeometry x="138" y="35" width="180" height="45" as="geometry" />
        </mxCell>
        <mxCell id="SQYRhNaokP3GQ9LWGMA7-5" value="&lt;div style=&quot;display: flex; justify-content: center; text-align: center; align-items: baseline; font-size: 15px; line-height: 1.25; margin-top: -2px;&quot;&gt;&lt;span style=&quot;font-size: 15px;&quot;&gt;&lt;span style=&quot;font-size: 15px; color: rgb(58, 65, 74); font-family: &amp;quot;Liberation Serif&amp;quot;;&quot;&gt;&lt;span style=&quot;font-size: 15px; color: rgb(58, 65, 74); font-family: &amp;quot;Liberation Serif&amp;quot;;&quot;&gt;&amp;lt;&amp;lt;Operating System&amp;gt;&amp;gt;&lt;br&gt;&lt;/span&gt;&lt;span style=&quot;font-size: 15px; color: rgb(58, 65, 74); font-weight: bold; font-family: &amp;quot;Liberation Serif&amp;quot;;&quot;&gt;Windows&lt;/span&gt;&lt;/span&gt;&lt;/span&gt;&lt;/div&gt;" style="html=1;overflow=block;blockSpacing=1;whiteSpace=wrap;fontSize=15;fontFamily=Liberation Serif;spacing=0;fillColor=#ffffff;strokeWidth=1.5;strokeColor=none;lucidId=wvU3Lk8U5SEv;" parent="SQYRhNaokP3GQ9LWGMA7-1" vertex="1">
          <mxGeometry x="100" y="125" width="180" height="45" as="geometry" />
        </mxCell>
        <mxCell id="SQYRhNaokP3GQ9LWGMA7-6" value="&lt;div style=&quot;display: flex; justify-content: center; text-align: center; align-items: baseline; font-size: 15px; line-height: 1.25; margin-top: -2px;&quot;&gt;&lt;span style=&quot;font-size: 15px;&quot;&gt;&lt;span style=&quot;font-size: 15px; color: rgb(58, 65, 74); font-family: &amp;quot;Liberation Serif&amp;quot;;&quot;&gt;&lt;span style=&quot;font-size: 15px; color: rgb(58, 65, 74); font-family: &amp;quot;Liberation Serif&amp;quot;;&quot;&gt;&amp;lt;&amp;lt;Execution Environment&amp;gt;&amp;gt;&#xa;&lt;/span&gt;&lt;span style=&quot;font-size: 15px; color: rgb(58, 65, 74); font-weight: bold; font-family: &amp;quot;Liberation Serif&amp;quot;;&quot;&gt;Chrome&lt;/span&gt;&lt;/span&gt;&lt;/span&gt;&lt;/div&gt;" style="html=1;overflow=block;blockSpacing=1;whiteSpace=wrap;fontSize=15;fontFamily=Liberation Serif;spacing=0;fillColor=#ffffff;strokeWidth=1.5;strokeColor=none;lucidId=FxU3HF4r3R8h;" parent="SQYRhNaokP3GQ9LWGMA7-1" vertex="1">
          <mxGeometry x="69" y="217.5" width="180" height="45" as="geometry" />
        </mxCell>
        <mxCell id="SQYRhNaokP3GQ9LWGMA7-7" value="&amp;lt;&amp;lt;Component&amp;gt;&amp;gt;&#xa;WebApp" style="html=1;dropTarget=0;fontSize=16.7;fontFamily=Liberation Serif;fontColor=#3a414a;spacing=3.8;strokeColor=#3a414a;strokeOpacity=100;rounded=1;absoluteArcSize=1;arcSize=9;strokeWidth=0.8;" parent="SQYRhNaokP3GQ9LWGMA7-1" vertex="1">
          <mxGeometry x="120" y="285" width="165" height="75" as="geometry" />
        </mxCell>
        <mxCell id="SQYRhNaokP3GQ9LWGMA7-8" value="" style="shape=component;jettyWidth=8;jettyHeight=4;" parent="SQYRhNaokP3GQ9LWGMA7-7" vertex="1">
          <mxGeometry x="1" width="15" height="15" relative="1" as="geometry">
            <mxPoint x="-20" y="5" as="offset" />
          </mxGeometry>
        </mxCell>
        <mxCell id="SQYRhNaokP3GQ9LWGMA7-9" value="&amp;lt;&amp;lt;artefact&amp;gt;&amp;gt;&#xa;.html file" style="html=1;overflow=block;blockSpacing=1;whiteSpace=wrap;fontSize=16.7;fontFamily=Liberation Serif;fontColor=#3a414a;spacing=3.8;strokeColor=#3a414a;strokeOpacity=100;rounded=1;absoluteArcSize=1;arcSize=9;strokeWidth=0.8;lucidId=IEU3ihdVH9w3;" parent="SQYRhNaokP3GQ9LWGMA7-1" vertex="1">
          <mxGeometry x="18" y="405" width="120" height="60" as="geometry" />
        </mxCell>
        <mxCell id="SQYRhNaokP3GQ9LWGMA7-10" value="&amp;lt;&amp;lt;manifests&amp;gt;&amp;gt;" style="html=1;overflow=block;blockSpacing=1;whiteSpace=wrap;fontSize=15;fontFamily=Liberation Serif;fontColor=#3a414a;spacing=0;fillColor=#ffffff;strokeWidth=1.5;strokeColor=none;lucidId=qFU3s.oQQkOJ;" parent="SQYRhNaokP3GQ9LWGMA7-1" vertex="1">
          <mxGeometry x="45" y="360" width="180" height="45" as="geometry" />
        </mxCell>
        <mxCell id="SQYRhNaokP3GQ9LWGMA7-11" value="" style="html=1;jettySize=18;whiteSpace=wrap;fontSize=13;strokeColor=#3a414a;strokeOpacity=100;dashed=1;fixDash=1;dashPattern=6 5;strokeWidth=0.8;rounded=1;arcSize=12;edgeStyle=orthogonalEdgeStyle;startArrow=none;endArrow=block;endFill=1;exitX=0.5;exitY=-0.006;exitPerimeter=0;entryX=-0.002;entryY=0.5;entryPerimeter=0;lucidId=REU3cj40gqiL;" parent="SQYRhNaokP3GQ9LWGMA7-1" source="SQYRhNaokP3GQ9LWGMA7-9" target="SQYRhNaokP3GQ9LWGMA7-7" edge="1">
          <mxGeometry width="100" height="100" relative="1" as="geometry">
            <Array as="points" />
          </mxGeometry>
        </mxCell>
        <mxCell id="SQYRhNaokP3GQ9LWGMA7-83" style="edgeStyle=orthogonalEdgeStyle;rounded=0;orthogonalLoop=1;jettySize=auto;html=1;entryX=0.231;entryY=1.014;entryDx=0;entryDy=0;entryPerimeter=0;endArrow=none;endFill=0;" parent="1" source="SQYRhNaokP3GQ9LWGMA7-12" target="SQYRhNaokP3GQ9LWGMA7-21" edge="1">
          <mxGeometry relative="1" as="geometry" />
        </mxCell>
        <mxCell id="SQYRhNaokP3GQ9LWGMA7-84" value="&lt;font style=&quot;font-size: 15px;&quot;&gt;HTTP&lt;/font&gt;" style="edgeLabel;html=1;align=center;verticalAlign=middle;resizable=0;points=[];" parent="SQYRhNaokP3GQ9LWGMA7-83" vertex="1" connectable="0">
          <mxGeometry x="0.1811" y="4" relative="1" as="geometry">
            <mxPoint as="offset" />
          </mxGeometry>
        </mxCell>
        <mxCell id="SQYRhNaokP3GQ9LWGMA7-12" value="" style="html=1;overflow=block;blockSpacing=1;whiteSpace=wrap;shape=cube;size=20;flipH=1;verticalAlign=top;spacingTop=22;spacingLeft=5;fontSize=13;align=left;spacing=0;strokeColor=#3a414a;strokeOpacity=100;rounded=1;absoluteArcSize=1;arcSize=9;strokeWidth=0.8;lucidId=JHU3siwvI~Km;container=1;collapsible=0;" parent="1" vertex="1">
          <mxGeometry x="660" y="495" width="480" height="480" as="geometry" />
        </mxCell>
        <mxCell id="SQYRhNaokP3GQ9LWGMA7-13" value="" style="html=1;overflow=block;blockSpacing=1;whiteSpace=wrap;shape=cube;size=20;flipH=1;verticalAlign=top;spacingTop=22;spacingLeft=5;fontSize=13;align=left;spacing=0;strokeColor=#3a414a;strokeOpacity=100;rounded=1;absoluteArcSize=1;arcSize=9;strokeWidth=0.8;lucidId=JHU37uJ7AMBL;" parent="SQYRhNaokP3GQ9LWGMA7-12" vertex="1">
          <mxGeometry y="150" width="375" height="330" as="geometry" />
        </mxCell>
        <mxCell id="SQYRhNaokP3GQ9LWGMA7-14" value="&lt;div style=&quot;display: flex; justify-content: center; text-align: center; align-items: baseline; font-size: 15px; line-height: 1.25; margin-top: -2px;&quot;&gt;&lt;span style=&quot;font-size: 15px;&quot;&gt;&lt;span style=&quot;font-size: 15px; color: rgb(58, 65, 74); font-family: &amp;quot;Liberation Serif&amp;quot;;&quot;&gt;&lt;span style=&quot;font-size: 15px; color: rgb(58, 65, 74); font-family: &amp;quot;Liberation Serif&amp;quot;;&quot;&gt;&amp;lt;&amp;lt;Device&amp;gt;&amp;gt;&#xa;&lt;/span&gt;&lt;span style=&quot;font-size: 15px; color: rgb(58, 65, 74); font-weight: bold; font-family: &amp;quot;Liberation Serif&amp;quot;;&quot;&gt;Mobile Device&lt;/span&gt;&lt;/span&gt;&lt;/span&gt;&lt;/div&gt;" style="html=1;overflow=block;blockSpacing=1;whiteSpace=wrap;fontSize=15;fontFamily=Liberation Serif;spacing=0;fillColor=#ffffff;strokeWidth=1.5;strokeColor=none;lucidId=JHU3DT8R5wwh;" parent="SQYRhNaokP3GQ9LWGMA7-12" vertex="1">
          <mxGeometry x="150" y="35" width="180" height="45" as="geometry" />
        </mxCell>
        <mxCell id="SQYRhNaokP3GQ9LWGMA7-15" value="&lt;div style=&quot;display: flex; justify-content: center; text-align: center; align-items: baseline; font-size: 15px; line-height: 1.25; margin-top: -2px;&quot;&gt;&lt;span style=&quot;font-size: 15px;&quot;&gt;&lt;span style=&quot;font-size: 15px; color: rgb(58, 65, 74); font-family: &amp;quot;Liberation Serif&amp;quot;;&quot;&gt;&lt;span style=&quot;font-size: 15px; color: rgb(58, 65, 74); font-family: &amp;quot;Liberation Serif&amp;quot;;&quot;&gt;&amp;lt;&amp;lt;Operating System&amp;gt;&amp;gt;&#xa;&lt;/span&gt;&lt;span style=&quot;font-size: 15px; color: rgb(58, 65, 74); font-weight: bold; font-family: &amp;quot;Liberation Serif&amp;quot;;&quot;&gt;Android&lt;/span&gt;&lt;/span&gt;&lt;/span&gt;&lt;/div&gt;" style="html=1;overflow=block;blockSpacing=1;whiteSpace=wrap;fontSize=15;fontFamily=Liberation Serif;spacing=0;fillColor=#ffffff;strokeWidth=1.5;strokeColor=none;lucidId=JHU3DRB1nP89;" parent="SQYRhNaokP3GQ9LWGMA7-12" vertex="1">
          <mxGeometry x="90" y="195" width="180" height="45" as="geometry" />
        </mxCell>
        <mxCell id="SQYRhNaokP3GQ9LWGMA7-16" value="&amp;lt;&amp;lt;Component&amp;gt;&amp;gt;&#xa;Mobile App" style="html=1;dropTarget=0;fontSize=16.7;fontFamily=Liberation Serif;fontColor=#3a414a;spacing=3.8;strokeColor=#3a414a;strokeOpacity=100;rounded=1;absoluteArcSize=1;arcSize=9;strokeWidth=0.8;" parent="SQYRhNaokP3GQ9LWGMA7-12" vertex="1">
          <mxGeometry x="120" y="285" width="165" height="75" as="geometry" />
        </mxCell>
        <mxCell id="SQYRhNaokP3GQ9LWGMA7-17" value="" style="shape=component;jettyWidth=8;jettyHeight=4;" parent="SQYRhNaokP3GQ9LWGMA7-16" vertex="1">
          <mxGeometry x="1" width="15" height="15" relative="1" as="geometry">
            <mxPoint x="-20" y="5" as="offset" />
          </mxGeometry>
        </mxCell>
        <mxCell id="SQYRhNaokP3GQ9LWGMA7-18" value="&amp;lt;&amp;lt;artefact&amp;gt;&amp;gt;&#xa;.apk file" style="html=1;overflow=block;blockSpacing=1;whiteSpace=wrap;fontSize=16.7;fontFamily=Liberation Serif;fontColor=#3a414a;spacing=3.8;strokeColor=#3a414a;strokeOpacity=100;rounded=1;absoluteArcSize=1;arcSize=9;strokeWidth=0.8;lucidId=JHU3u..LNxvn;" parent="SQYRhNaokP3GQ9LWGMA7-12" vertex="1">
          <mxGeometry x="18" y="405" width="120" height="60" as="geometry" />
        </mxCell>
        <mxCell id="SQYRhNaokP3GQ9LWGMA7-19" value="&amp;lt;&amp;lt;manifests&amp;gt;&amp;gt;" style="html=1;overflow=block;blockSpacing=1;whiteSpace=wrap;fontSize=15;fontFamily=Liberation Serif;fontColor=#3a414a;spacing=0;fillColor=#ffffff;strokeWidth=1.5;strokeColor=none;lucidId=JHU3pieuXa8R;" parent="SQYRhNaokP3GQ9LWGMA7-12" vertex="1">
          <mxGeometry x="45" y="360" width="180" height="45" as="geometry" />
        </mxCell>
        <mxCell id="SQYRhNaokP3GQ9LWGMA7-20" value="" style="html=1;jettySize=18;whiteSpace=wrap;fontSize=13;strokeColor=#3a414a;strokeOpacity=100;dashed=1;fixDash=1;dashPattern=6 5;strokeWidth=0.8;rounded=1;arcSize=12;edgeStyle=orthogonalEdgeStyle;startArrow=none;endArrow=block;endFill=1;exitX=0.5;exitY=-0.006;exitPerimeter=0;entryX=-0.002;entryY=0.5;entryPerimeter=0;lucidId=JHU3JKF7nAcX;" parent="SQYRhNaokP3GQ9LWGMA7-12" source="SQYRhNaokP3GQ9LWGMA7-18" target="SQYRhNaokP3GQ9LWGMA7-16" edge="1">
          <mxGeometry width="100" height="100" relative="1" as="geometry">
            <Array as="points" />
          </mxGeometry>
        </mxCell>
        <mxCell id="SQYRhNaokP3GQ9LWGMA7-21" value="" style="html=1;overflow=block;blockSpacing=1;whiteSpace=wrap;shape=cube;size=20;flipH=1;verticalAlign=top;spacingTop=22;spacingLeft=5;fontSize=13;align=left;spacing=0;strokeColor=#3a414a;strokeOpacity=100;rounded=1;absoluteArcSize=1;arcSize=9;strokeWidth=0.8;lucidId=3KU38yH2BYX4;" parent="1" vertex="1">
          <mxGeometry x="270" y="60" width="820" height="345" as="geometry" />
        </mxCell>
        <mxCell id="SQYRhNaokP3GQ9LWGMA7-22" value="&amp;lt;&amp;lt;Component&amp;gt;&amp;gt;&#xa;Web Server" style="html=1;dropTarget=0;fontSize=16.7;fontFamily=Liberation Serif;fontColor=#3a414a;spacing=3.8;strokeColor=#3a414a;strokeOpacity=100;rounded=1;absoluteArcSize=1;arcSize=9;strokeWidth=0.8;" parent="1" vertex="1">
          <mxGeometry x="405" y="150" width="135" height="75" as="geometry" />
        </mxCell>
        <mxCell id="SQYRhNaokP3GQ9LWGMA7-23" value="" style="shape=component;jettyWidth=8;jettyHeight=4;" parent="SQYRhNaokP3GQ9LWGMA7-22" vertex="1">
          <mxGeometry x="1" width="15" height="15" relative="1" as="geometry">
            <mxPoint x="-20" y="5" as="offset" />
          </mxGeometry>
        </mxCell>
        <mxCell id="SQYRhNaokP3GQ9LWGMA7-24" value="&lt;div style=&quot;display: flex; justify-content: center; text-align: center; align-items: baseline; font-size: 15px; line-height: 1.25; margin-top: -2px;&quot;&gt;&lt;span style=&quot;font-size: 15px;&quot;&gt;&lt;span style=&quot;font-size: 15px; color: rgb(58, 65, 74); font-family: &amp;quot;Liberation Serif&amp;quot;;&quot;&gt;&lt;span style=&quot;font-size: 15px; color: rgb(58, 65, 74); font-family: &amp;quot;Liberation Serif&amp;quot;;&quot;&gt;&amp;lt;&amp;lt;Operating System&amp;gt;&amp;gt;&#xa;&lt;/span&gt;&lt;span style=&quot;font-size: 15px; color: rgb(58, 65, 74); font-weight: bold; font-family: &amp;quot;Liberation Serif&amp;quot;;&quot;&gt;Linux &lt;/span&gt;&lt;/span&gt;&lt;/span&gt;&lt;/div&gt;" style="html=1;overflow=block;blockSpacing=1;whiteSpace=wrap;fontSize=15;fontFamily=Liberation Serif;spacing=0;fillColor=#ffffff;strokeWidth=1.5;strokeColor=none;lucidId=uNU3uBw3VX.I;" parent="1" vertex="1">
          <mxGeometry x="590" y="87" width="180" height="45" as="geometry" />
        </mxCell>
        <mxCell id="SQYRhNaokP3GQ9LWGMA7-64" style="edgeStyle=orthogonalEdgeStyle;rounded=0;orthogonalLoop=1;jettySize=auto;html=1;dashed=1;" parent="1" source="SQYRhNaokP3GQ9LWGMA7-25" target="SQYRhNaokP3GQ9LWGMA7-60" edge="1">
          <mxGeometry relative="1" as="geometry" />
        </mxCell>
        <mxCell id="SQYRhNaokP3GQ9LWGMA7-65" value="&lt;font style=&quot;font-size: 15px;&quot;&gt;&amp;lt;&amp;lt;runs&amp;gt;&amp;gt;&lt;/font&gt;" style="edgeLabel;html=1;align=center;verticalAlign=middle;resizable=0;points=[];" parent="SQYRhNaokP3GQ9LWGMA7-64" vertex="1" connectable="0">
          <mxGeometry x="-0.0531" y="-3" relative="1" as="geometry">
            <mxPoint y="20" as="offset" />
          </mxGeometry>
        </mxCell>
        <mxCell id="SQYRhNaokP3GQ9LWGMA7-25" value="&amp;lt;&amp;lt;Component&amp;gt;&amp;gt;&#xa;App Server" style="html=1;dropTarget=0;fontSize=16.7;fontFamily=Liberation Serif;fontColor=#3a414a;spacing=3.8;strokeColor=#3a414a;strokeOpacity=100;rounded=1;absoluteArcSize=1;arcSize=9;strokeWidth=0.8;" parent="1" vertex="1">
          <mxGeometry x="555" y="150" width="123" height="75" as="geometry" />
        </mxCell>
        <mxCell id="SQYRhNaokP3GQ9LWGMA7-26" value="" style="shape=component;jettyWidth=8;jettyHeight=4;" parent="SQYRhNaokP3GQ9LWGMA7-25" vertex="1">
          <mxGeometry x="1" width="15" height="15" relative="1" as="geometry">
            <mxPoint x="-21" y="6" as="offset" />
          </mxGeometry>
        </mxCell>
        <mxCell id="SQYRhNaokP3GQ9LWGMA7-67" style="edgeStyle=orthogonalEdgeStyle;rounded=0;orthogonalLoop=1;jettySize=auto;html=1;exitX=1;exitY=0.5;exitDx=0;exitDy=0;dashed=1;" parent="1" source="SQYRhNaokP3GQ9LWGMA7-33" target="SQYRhNaokP3GQ9LWGMA7-66" edge="1">
          <mxGeometry relative="1" as="geometry" />
        </mxCell>
        <mxCell id="SQYRhNaokP3GQ9LWGMA7-68" value="&lt;font style=&quot;font-size: 15px;&quot;&gt;&amp;lt;&amp;lt;uses&amp;gt;&amp;gt;&lt;/font&gt;" style="edgeLabel;html=1;align=center;verticalAlign=middle;resizable=0;points=[];" parent="SQYRhNaokP3GQ9LWGMA7-67" vertex="1" connectable="0">
          <mxGeometry x="0.0798" y="-1" relative="1" as="geometry">
            <mxPoint as="offset" />
          </mxGeometry>
        </mxCell>
        <mxCell id="SQYRhNaokP3GQ9LWGMA7-33" value="&amp;lt;&amp;lt;Component&amp;gt;&amp;gt;&#xa;Database Server" style="html=1;dropTarget=0;fontSize=16.7;fontFamily=Liberation Serif;fontColor=#3a414a;spacing=3.8;strokeColor=#3a414a;strokeOpacity=100;rounded=1;absoluteArcSize=1;arcSize=9;strokeWidth=0.8;" parent="1" vertex="1">
          <mxGeometry x="820" y="148.75" width="123" height="75" as="geometry" />
        </mxCell>
        <mxCell id="SQYRhNaokP3GQ9LWGMA7-34" value="" style="shape=component;jettyWidth=8;jettyHeight=4;" parent="SQYRhNaokP3GQ9LWGMA7-33" vertex="1">
          <mxGeometry x="1" width="15" height="15" relative="1" as="geometry">
            <mxPoint x="-20" y="5" as="offset" />
          </mxGeometry>
        </mxCell>
        <mxCell id="SQYRhNaokP3GQ9LWGMA7-51" value="&amp;lt;&amp;lt;Device&amp;gt;&amp;gt;&lt;br style=&quot;font-size: 15px;&quot;&gt;&lt;b style=&quot;font-size: 15px;&quot;&gt;Server&lt;/b&gt;" style="text;html=1;align=center;verticalAlign=middle;resizable=0;points=[];autosize=1;strokeColor=none;fillColor=none;fontSize=15;" parent="1" vertex="1">
          <mxGeometry x="630" y="10" width="100" height="50" as="geometry" />
        </mxCell>
        <mxCell id="SQYRhNaokP3GQ9LWGMA7-58" style="edgeStyle=orthogonalEdgeStyle;rounded=0;orthogonalLoop=1;jettySize=auto;html=1;exitX=0.5;exitY=0;exitDx=0;exitDy=0;entryX=0;entryY=0.5;entryDx=0;entryDy=0;endArrow=none;endFill=0;startArrow=classic;startFill=1;dashed=1;" parent="1" source="SQYRhNaokP3GQ9LWGMA7-57" target="SQYRhNaokP3GQ9LWGMA7-22" edge="1">
          <mxGeometry relative="1" as="geometry" />
        </mxCell>
        <mxCell id="SQYRhNaokP3GQ9LWGMA7-59" value="&amp;lt;&amp;lt;uses&amp;gt;&amp;gt;" style="edgeLabel;html=1;align=center;verticalAlign=middle;resizable=0;points=[];fontSize=14;" parent="SQYRhNaokP3GQ9LWGMA7-58" vertex="1" connectable="0">
          <mxGeometry x="-0.2483" y="5" relative="1" as="geometry">
            <mxPoint as="offset" />
          </mxGeometry>
        </mxCell>
        <mxCell id="SQYRhNaokP3GQ9LWGMA7-57" value="&amp;lt;&amp;lt;artefact&amp;gt;&amp;gt;&lt;br&gt;webserver.config" style="html=1;whiteSpace=wrap;rounded=1;" parent="1" vertex="1">
          <mxGeometry x="290" y="297.5" width="105" height="77.5" as="geometry" />
        </mxCell>
        <mxCell id="SQYRhNaokP3GQ9LWGMA7-60" value="&amp;lt;&amp;lt;artefact&amp;gt;&amp;gt;&lt;br&gt;db_ops.jar" style="html=1;whiteSpace=wrap;rounded=1;" parent="1" vertex="1">
          <mxGeometry x="707" y="297.5" width="105" height="77.5" as="geometry" />
        </mxCell>
        <mxCell id="SQYRhNaokP3GQ9LWGMA7-66" value="&amp;lt;&amp;lt;artefact&amp;gt;&amp;gt;&lt;br&gt;schema.xsd" style="html=1;whiteSpace=wrap;rounded=1;" parent="1" vertex="1">
          <mxGeometry x="955" y="298.75" width="105" height="77.5" as="geometry" />
        </mxCell>
        <mxCell id="SQYRhNaokP3GQ9LWGMA7-70" style="edgeStyle=orthogonalEdgeStyle;rounded=0;orthogonalLoop=1;jettySize=auto;html=1;entryX=0.5;entryY=1;entryDx=0;entryDy=0;dashed=1;dashPattern=8 8;" parent="1" source="SQYRhNaokP3GQ9LWGMA7-69" target="SQYRhNaokP3GQ9LWGMA7-22" edge="1">
          <mxGeometry relative="1" as="geometry" />
        </mxCell>
        <mxCell id="SQYRhNaokP3GQ9LWGMA7-71" value="&lt;font style=&quot;font-size: 15px;&quot;&gt;&amp;lt;&amp;lt;manifests&amp;gt;&amp;gt;&lt;/font&gt;" style="edgeLabel;html=1;align=center;verticalAlign=middle;resizable=0;points=[];" parent="SQYRhNaokP3GQ9LWGMA7-70" vertex="1" connectable="0">
          <mxGeometry x="-0.0933" y="1" relative="1" as="geometry">
            <mxPoint y="1" as="offset" />
          </mxGeometry>
        </mxCell>
        <mxCell id="SQYRhNaokP3GQ9LWGMA7-69" value="&amp;lt;&amp;lt;artefact&amp;gt;&amp;gt;&lt;br&gt;webserver.jar" style="html=1;whiteSpace=wrap;rounded=1;" parent="1" vertex="1">
          <mxGeometry x="420" y="300" width="105" height="77.5" as="geometry" />
        </mxCell>
        <mxCell id="SQYRhNaokP3GQ9LWGMA7-75" style="edgeStyle=orthogonalEdgeStyle;rounded=0;orthogonalLoop=1;jettySize=auto;html=1;dashed=1;" parent="1" source="SQYRhNaokP3GQ9LWGMA7-73" target="SQYRhNaokP3GQ9LWGMA7-25" edge="1">
          <mxGeometry relative="1" as="geometry" />
        </mxCell>
        <mxCell id="SQYRhNaokP3GQ9LWGMA7-76" value="&lt;font style=&quot;font-size: 15px;&quot;&gt;&amp;lt;&amp;lt;manifests&amp;gt;&amp;gt;&lt;/font&gt;" style="edgeLabel;html=1;align=center;verticalAlign=middle;resizable=0;points=[];" parent="SQYRhNaokP3GQ9LWGMA7-75" vertex="1" connectable="0">
          <mxGeometry x="0.087" y="-1" relative="1" as="geometry">
            <mxPoint x="1" y="9" as="offset" />
          </mxGeometry>
        </mxCell>
        <mxCell id="SQYRhNaokP3GQ9LWGMA7-73" value="&amp;lt;&amp;lt;artefact&amp;gt;&amp;gt;&lt;br style=&quot;border-color: var(--border-color); color: rgb(58, 65, 74); font-family: &amp;quot;Liberation Serif&amp;quot;; font-size: 17px;&quot;&gt;&lt;span style=&quot;color: rgb(58, 65, 74); font-family: &amp;quot;Liberation Serif&amp;quot;;&quot;&gt;&lt;font style=&quot;font-size: 15px;&quot;&gt;appserver.jar&lt;/font&gt;&lt;/span&gt;" style="html=1;whiteSpace=wrap;rounded=1;" parent="1" vertex="1">
          <mxGeometry x="564" y="298.75" width="105" height="77.5" as="geometry" />
        </mxCell>
        <mxCell id="SQYRhNaokP3GQ9LWGMA7-79" style="edgeStyle=orthogonalEdgeStyle;rounded=0;orthogonalLoop=1;jettySize=auto;html=1;dashed=1;" parent="1" source="SQYRhNaokP3GQ9LWGMA7-78" target="SQYRhNaokP3GQ9LWGMA7-33" edge="1">
          <mxGeometry relative="1" as="geometry" />
        </mxCell>
        <mxCell id="SQYRhNaokP3GQ9LWGMA7-80" value="&lt;font style=&quot;font-size: 15px;&quot;&gt;&amp;lt;&amp;lt;manifests&amp;gt;&amp;gt;&lt;/font&gt;" style="edgeLabel;html=1;align=center;verticalAlign=middle;resizable=0;points=[];" parent="SQYRhNaokP3GQ9LWGMA7-79" vertex="1" connectable="0">
          <mxGeometry x="-0.1414" y="1" relative="1" as="geometry">
            <mxPoint as="offset" />
          </mxGeometry>
        </mxCell>
        <mxCell id="SQYRhNaokP3GQ9LWGMA7-78" value="&amp;lt;&amp;lt;artefact&amp;gt;&amp;gt;&lt;br style=&quot;border-color: var(--border-color);&quot;&gt;dbserver.jar" style="html=1;whiteSpace=wrap;rounded=1;" parent="1" vertex="1">
          <mxGeometry x="830" y="296.25" width="105" height="77.5" as="geometry" />
        </mxCell>
      </root>
    </mxGraphModel>
  </diagram>
</mxfile>
